<?xml version="1.0" encoding="UTF-8" standalone="no"?><!DOCTYPE svg PUBLIC "-//W3C//DTD SVG 1.1//EN" "http://www.w3.org/Graphics/SVG/1.1/DTD/svg11.dtd"><svg width="100%" height="100%" viewBox="0 0 100 100" version="1.1" xmlns="http://www.w3.org/2000/svg" xmlns:xlink="http://www.w3.org/1999/xlink" xml:space="preserve" xmlns:serif="http://www.serif.com/" style="fill-rule:evenodd;clip-rule:evenodd;stroke-linejoin:round;stroke-miterlimit:1.41421;"><rect id="scrattino-connection" x="0" y="0" width="100" height="100" style="fill:none;"/><path d="M35.537,18.095l0.003,52.078c-2.836,-0.59 -6.135,-0.368 -9.407,0.846c-7.362,2.735 -9.959,9.388 -8.007,14.856c1.952,5.472 7.71,7.687 15.071,4.953c6.252,-2.323 10.344,-7.47 10.243,-12.319c0,0 0,-27.617 0,-43.02l31.159,-7.141l0,33.049c-2.836,-0.591 -6.136,-0.369 -9.408,0.845c-7.361,2.734 -9.958,9.388 -8.006,14.857c1.952,5.472 7.71,7.687 15.071,4.952c6.252,-2.322 10.343,-7.469 10.242,-12.318l0,-61.732l-46.961,10.094Z" style="fill:#148fff;fill-rule:nonzero;"/></svg>